<svg width="122" height="50" viewBox="0 0 122 50" fill="none" xmlns="http://www.w3.org/2000/svg">
<g clip-path="url(#clip0_106_1055)">
<path d="M4.54256 0.826065C3.17554 2.24998 2.29256 3.51628 1.51596 5.17933C0.340432 7.69563 -0.186164 10.3532 0.053198 12.5272C0.324475 14.9402 1.2766 16.913 3.37767 19.4293C4.01596 20.1956 6.01064 22.3261 6.88298 23.1685C7.81915 24.0761 9.93086 26.3152 10.7181 27.2337C13.0585 29.9565 14.9202 32.9728 15.633 35.1902C16.0745 36.5598 16.1436 37.0272 16.1383 38.5869C16.1383 39.4728 16.1064 40.1467 16.0532 40.5978C16.0053 40.9728 15.9734 41.2826 15.9787 41.288C15.984 41.2935 16.0745 41.2772 16.1755 41.25C16.4149 41.1793 17.0213 40.5489 17.5638 39.8043C18.8085 38.0869 19.5692 36.2065 19.8723 34.0978C20 33.2174 20 31.3261 19.8723 30.3804C19.5213 27.7554 18.5532 25.1413 16.8883 22.288C15.9202 20.6304 15.016 19.2989 12.4628 15.7826C10.3138 12.8261 9.22873 11.2119 8.09043 9.27172C6.21809 6.08693 5.37235 3.45107 5.37235 0.804325C5.37235 0.391281 5.35107 0.0543251 5.32979 0.0543251C5.3032 0.0543251 4.95213 0.402153 4.54256 0.826065Z" fill="#828282"/>
<path d="M4.40957 25.0272C4.07978 25.212 3.18617 26.5435 2.63829 27.6631C1.95212 29.0761 1.68617 30.125 1.68085 31.4402C1.68085 32.5598 1.87234 33.4457 2.32978 34.375C2.84042 35.4239 3.46808 36.2011 5.56383 38.375C8.55851 41.4892 9.57978 42.7229 10.4521 44.2663C11.0213 45.2772 11.3989 46.2881 11.6011 47.3479C11.6968 47.8424 11.7234 48.1576 11.7234 48.9511C11.7287 49.5 11.7447 49.9457 11.7606 49.9457C11.7819 49.9457 11.9787 49.75 12.2021 49.5109C12.8404 48.8261 13.2394 48.1359 13.5851 47.125C13.9308 46.1196 14.0106 45.5979 14.0106 44.4294C14.0106 43.5163 13.9894 43.3152 13.867 42.7011C13.3457 40.1848 12.4521 38.4892 9.48936 34.3968C7.3617 31.4674 6.8617 30.7011 6.19149 29.375C5.53723 28.0815 5.20212 27.1142 4.9734 25.8315C4.85638 25.1848 4.75532 24.9402 4.60638 24.9457C4.57446 24.9511 4.48404 24.9837 4.40957 25.0272Z" fill="#828282"/>
</g>
<path d="M45.87 20C45.7453 20 45.649 19.966 45.581 19.898C45.513 19.8187 45.479 19.7223 45.479 19.609V8.508C45.479 8.38333 45.513 8.287 45.581 8.219C45.649 8.13967 45.7453 8.1 45.87 8.1H46.737C46.8617 8.1 46.958 8.13967 47.026 8.219C47.1053 8.287 47.145 8.38333 47.145 8.508V13.2H52.993V8.508C52.993 8.38333 53.027 8.287 53.095 8.219C53.1743 8.13967 53.2707 8.1 53.384 8.1H54.251C54.3757 8.1 54.472 8.13967 54.54 8.219C54.6193 8.287 54.659 8.38333 54.659 8.508V19.609C54.659 19.7223 54.6193 19.8187 54.54 19.898C54.472 19.966 54.3757 20 54.251 20H53.384C53.2707 20 53.1743 19.966 53.095 19.898C53.027 19.8187 52.993 19.7223 52.993 19.609V14.73H47.145V19.609C47.145 19.7223 47.1053 19.8187 47.026 19.898C46.958 19.966 46.8617 20 46.737 20H45.87ZM60.8961 20.17C59.7288 20.17 58.7995 19.813 58.1081 19.099C57.4168 18.3737 57.0371 17.3877 56.9691 16.141C56.9578 15.9937 56.9521 15.8067 56.9521 15.58C56.9521 15.342 56.9578 15.1493 56.9691 15.002C57.0145 14.1973 57.2015 13.4947 57.5301 12.894C57.8588 12.282 58.3065 11.8117 58.8731 11.483C59.4511 11.1543 60.1255 10.99 60.8961 10.99C61.7575 10.99 62.4771 11.1713 63.0551 11.534C63.6445 11.8967 64.0921 12.4123 64.3981 13.081C64.7041 13.7497 64.8571 14.5317 64.8571 15.427V15.716C64.8571 15.8407 64.8175 15.937 64.7381 16.005C64.6701 16.073 64.5795 16.107 64.4661 16.107H58.5841C58.5841 16.1183 58.5841 16.141 58.5841 16.175C58.5841 16.209 58.5841 16.2373 58.5841 16.26C58.6068 16.7247 58.7088 17.161 58.8901 17.569C59.0715 17.9657 59.3321 18.2887 59.6721 18.538C60.0121 18.7873 60.4201 18.912 60.8961 18.912C61.3041 18.912 61.6441 18.8497 61.9161 18.725C62.1881 18.6003 62.4091 18.4643 62.5791 18.317C62.7491 18.1583 62.8625 18.0393 62.9191 17.96C63.0211 17.8127 63.1005 17.7277 63.1571 17.705C63.2138 17.671 63.3045 17.654 63.4291 17.654H64.2451C64.3585 17.654 64.4491 17.688 64.5171 17.756C64.5965 17.8127 64.6305 17.8977 64.6191 18.011C64.6078 18.181 64.5171 18.3907 64.3471 18.64C64.1771 18.878 63.9335 19.116 63.6161 19.354C63.2988 19.592 62.9135 19.7903 62.4601 19.949C62.0068 20.0963 61.4855 20.17 60.8961 20.17ZM58.5841 14.934H63.2421V14.883C63.2421 14.373 63.1458 13.9197 62.9531 13.523C62.7718 13.1263 62.5055 12.8147 62.1541 12.588C61.8028 12.35 61.3835 12.231 60.8961 12.231C60.4088 12.231 59.9895 12.35 59.6381 12.588C59.2981 12.8147 59.0375 13.1263 58.8561 13.523C58.6748 13.9197 58.5841 14.373 58.5841 14.883V14.934ZM69.3548 20.17C68.7882 20.17 68.2725 20.0567 67.8078 19.83C67.3432 19.6033 66.9692 19.2973 66.6858 18.912C66.4025 18.5267 66.2608 18.0903 66.2608 17.603C66.2608 16.821 66.5782 16.1977 67.2128 15.733C67.8475 15.2683 68.6748 14.9623 69.6948 14.815L72.2278 14.458V13.965C72.2278 13.421 72.0692 12.996 71.7518 12.69C71.4458 12.384 70.9415 12.231 70.2388 12.231C69.7288 12.231 69.3152 12.333 68.9978 12.537C68.6918 12.741 68.4765 13.0017 68.3518 13.319C68.2838 13.489 68.1648 13.574 67.9948 13.574H67.2298C67.1052 13.574 67.0088 13.54 66.9408 13.472C66.8842 13.3927 66.8558 13.302 66.8558 13.2C66.8558 13.03 66.9182 12.8203 67.0428 12.571C67.1788 12.3217 67.3828 12.078 67.6548 11.84C67.9268 11.602 68.2725 11.4037 68.6918 11.245C69.1225 11.075 69.6438 10.99 70.2558 10.99C70.9358 10.99 71.5082 11.0807 71.9728 11.262C72.4375 11.432 72.8002 11.6643 73.0608 11.959C73.3328 12.2537 73.5255 12.588 73.6388 12.962C73.7635 13.336 73.8258 13.7157 73.8258 14.101V19.609C73.8258 19.7223 73.7862 19.8187 73.7068 19.898C73.6388 19.966 73.5482 20 73.4348 20H72.6528C72.5282 20 72.4318 19.966 72.3638 19.898C72.2958 19.8187 72.2618 19.7223 72.2618 19.609V18.878C72.1145 19.082 71.9162 19.286 71.6668 19.49C71.4175 19.6827 71.1058 19.847 70.7318 19.983C70.3578 20.1077 69.8988 20.17 69.3548 20.17ZM69.7118 18.895C70.1765 18.895 70.6015 18.7987 70.9868 18.606C71.3722 18.402 71.6725 18.0903 71.8878 17.671C72.1145 17.2517 72.2278 16.7247 72.2278 16.09V15.614L70.2558 15.903C69.4512 16.0163 68.8448 16.209 68.4368 16.481C68.0288 16.7417 67.8248 17.076 67.8248 17.484C67.8248 17.8013 67.9155 18.0677 68.0968 18.283C68.2895 18.487 68.5275 18.64 68.8108 18.742C69.1055 18.844 69.4058 18.895 69.7118 18.895ZM76.6777 20C76.5644 20 76.4681 19.966 76.3887 19.898C76.3207 19.8187 76.2867 19.7223 76.2867 19.609V8.321C76.2867 8.20767 76.3207 8.117 76.3887 8.049C76.4681 7.96967 76.5644 7.93 76.6777 7.93H77.4767C77.6014 7.93 77.6977 7.96967 77.7657 8.049C77.8337 8.117 77.8677 8.20767 77.8677 8.321V19.609C77.8677 19.7223 77.8337 19.8187 77.7657 19.898C77.6977 19.966 77.6014 20 77.4767 20H76.6777ZM80.9605 20C80.8472 20 80.7509 19.966 80.6715 19.898C80.6035 19.8187 80.5695 19.7223 80.5695 19.609V11.551C80.5695 11.4377 80.6035 11.347 80.6715 11.279C80.7509 11.1997 80.8472 11.16 80.9605 11.16H81.7765C81.8899 11.16 81.9805 11.1997 82.0485 11.279C82.1165 11.347 82.1505 11.4377 82.1505 11.551V19.609C82.1505 19.7223 82.1165 19.8187 82.0485 19.898C81.9805 19.966 81.8899 20 81.7765 20H80.9605ZM80.8245 9.511C80.7112 9.511 80.6149 9.477 80.5355 9.409C80.4675 9.32967 80.4335 9.23333 80.4335 9.12V8.202C80.4335 8.08867 80.4675 7.998 80.5355 7.93C80.6149 7.85067 80.7112 7.811 80.8245 7.811H81.8955C82.0089 7.811 82.0995 7.85067 82.1675 7.93C82.2469 7.998 82.2865 8.08867 82.2865 8.202V9.12C82.2865 9.23333 82.2469 9.32967 82.1675 9.409C82.0995 9.477 82.0089 9.511 81.8955 9.511H80.8245ZM84.2787 20C84.188 20 84.103 19.966 84.0237 19.898C83.9557 19.83 83.9217 19.745 83.9217 19.643C83.9217 19.609 83.9274 19.5693 83.9387 19.524C83.9614 19.4673 83.9954 19.405 84.0407 19.337L86.9987 15.478L84.2277 11.823C84.1824 11.755 84.1484 11.6983 84.1257 11.653C84.1144 11.6077 84.1087 11.5623 84.1087 11.517C84.1087 11.415 84.1427 11.33 84.2107 11.262C84.2787 11.194 84.3637 11.16 84.4657 11.16H85.3327C85.4574 11.16 85.548 11.194 85.6047 11.262C85.6727 11.3187 85.7294 11.3753 85.7747 11.432L88.0357 14.373L90.2967 11.449C90.342 11.3923 90.393 11.33 90.4497 11.262C90.5177 11.194 90.614 11.16 90.7387 11.16H91.5717C91.6737 11.16 91.7587 11.194 91.8267 11.262C91.8947 11.33 91.9287 11.415 91.9287 11.517C91.9287 11.5623 91.9174 11.6077 91.8947 11.653C91.8834 11.6983 91.855 11.755 91.8097 11.823L89.0047 15.512L91.9627 19.337C92.008 19.405 92.0364 19.4617 92.0477 19.507C92.0704 19.5523 92.0817 19.5977 92.0817 19.643C92.0817 19.745 92.0477 19.83 91.9797 19.898C91.9117 19.966 91.8267 20 91.7247 20H90.8237C90.7104 20 90.6197 19.9717 90.5517 19.915C90.4837 19.8583 90.427 19.8017 90.3817 19.745L87.9847 16.634L85.5877 19.745C85.5424 19.7903 85.4857 19.847 85.4177 19.915C85.361 19.9717 85.2704 20 85.1457 20H84.2787ZM96.9915 20C96.9009 20 96.8215 19.966 96.7535 19.898C96.6855 19.83 96.6515 19.7507 96.6515 19.66C96.6515 19.6033 96.6572 19.541 96.6685 19.473L100.885 8.474C100.93 8.36067 100.992 8.27 101.072 8.202C101.151 8.134 101.27 8.1 101.429 8.1H102.585C102.732 8.1 102.845 8.134 102.925 8.202C103.015 8.27 103.083 8.36067 103.129 8.474L107.328 19.473C107.35 19.541 107.362 19.6033 107.362 19.66C107.362 19.7507 107.328 19.83 107.26 19.898C107.192 19.966 107.112 20 107.022 20H106.155C106.019 20 105.917 19.966 105.849 19.898C105.792 19.83 105.752 19.7677 105.73 19.711L104.795 17.297H99.2185L98.2835 19.711C98.2722 19.7677 98.2325 19.83 98.1645 19.898C98.0965 19.966 97.9945 20 97.8585 20H96.9915ZM99.7115 15.835H104.302L102.007 9.8L99.7115 15.835ZM109.57 20C109.446 20 109.349 19.966 109.281 19.898C109.213 19.8187 109.179 19.7223 109.179 19.609V8.491C109.179 8.37767 109.213 8.287 109.281 8.219C109.349 8.13967 109.446 8.1 109.57 8.1H110.471C110.585 8.1 110.675 8.13967 110.743 8.219C110.823 8.287 110.862 8.37767 110.862 8.491V19.609C110.862 19.7223 110.823 19.8187 110.743 19.898C110.675 19.966 110.585 20 110.471 20H109.57ZM49.015 42C48.845 42 48.709 41.9603 48.607 41.881C48.5163 41.8017 48.4427 41.694 48.386 41.558L44.595 30.627C44.5723 30.559 44.561 30.4967 44.561 30.44C44.561 30.3493 44.595 30.27 44.663 30.202C44.731 30.134 44.8103 30.1 44.901 30.1H45.785C45.921 30.1 46.023 30.1397 46.091 30.219C46.1703 30.287 46.2157 30.3493 46.227 30.406L49.559 40.045L52.891 30.406C52.9137 30.3493 52.959 30.287 53.027 30.219C53.095 30.1397 53.197 30.1 53.333 30.1H54.217C54.3077 30.1 54.387 30.134 54.455 30.202C54.5343 30.27 54.574 30.3493 54.574 30.44C54.574 30.4967 54.5627 30.559 54.54 30.627L50.732 41.558C50.6867 41.694 50.613 41.8017 50.511 41.881C50.4203 41.9603 50.29 42 50.12 42H49.015ZM63.5172 42C63.4039 42 63.3075 41.966 63.2282 41.898C63.1602 41.8187 63.1262 41.7223 63.1262 41.609V32.089L60.3042 34.265C60.2135 34.333 60.1172 34.3613 60.0152 34.35C59.9132 34.3387 59.8282 34.2877 59.7602 34.197L59.3182 33.636C59.2502 33.534 59.2219 33.432 59.2332 33.33C59.2559 33.228 59.3125 33.143 59.4032 33.075L63.1092 30.219C63.1885 30.1623 63.2622 30.1283 63.3302 30.117C63.3982 30.1057 63.4719 30.1 63.5512 30.1H64.4182C64.5315 30.1 64.6222 30.1397 64.6902 30.219C64.7582 30.287 64.7922 30.3777 64.7922 30.491V41.609C64.7922 41.7223 64.7582 41.8187 64.6902 41.898C64.6222 41.966 64.5315 42 64.4182 42H63.5172ZM67.6267 42C67.5133 42 67.417 41.966 67.3377 41.898C67.2697 41.8187 67.2357 41.7223 67.2357 41.609V40.385C67.2357 40.2717 67.2697 40.181 67.3377 40.113C67.417 40.0337 67.5133 39.994 67.6267 39.994H68.8507C68.964 39.994 69.0547 40.0337 69.1227 40.113C69.202 40.181 69.2417 40.2717 69.2417 40.385V41.609C69.2417 41.7223 69.202 41.8187 69.1227 41.898C69.0547 41.966 68.964 42 68.8507 42H67.6267ZM75.5199 42.17C74.7379 42.17 74.0749 42.051 73.5309 41.813C72.9982 41.5637 72.5619 41.2237 72.2219 40.793C71.8819 40.3623 71.6325 39.8693 71.4739 39.314C71.3265 38.7587 71.2415 38.1693 71.2189 37.546C71.2075 37.24 71.1962 36.917 71.1849 36.577C71.1849 36.237 71.1849 35.897 71.1849 35.557C71.1962 35.2057 71.2075 34.8713 71.2189 34.554C71.2302 33.9307 71.3152 33.3413 71.4739 32.786C71.6439 32.2193 71.8932 31.7263 72.2219 31.307C72.5619 30.8763 73.0039 30.542 73.5479 30.304C74.0919 30.0547 74.7492 29.93 75.5199 29.93C76.3019 29.93 76.9592 30.0547 77.4919 30.304C78.0359 30.542 78.4779 30.8763 78.8179 31.307C79.1579 31.7263 79.4072 32.2193 79.5659 32.786C79.7359 33.3413 79.8265 33.9307 79.8379 34.554C79.8492 34.8713 79.8549 35.2057 79.8549 35.557C79.8662 35.897 79.8662 36.237 79.8549 36.577C79.8549 36.917 79.8492 37.24 79.8379 37.546C79.8265 38.1693 79.7359 38.7587 79.5659 39.314C79.4072 39.8693 79.1579 40.3623 78.8179 40.793C78.4892 41.2237 78.0529 41.5637 77.5089 41.813C76.9762 42.051 76.3132 42.17 75.5199 42.17ZM75.5199 40.725C76.4039 40.725 77.0555 40.436 77.4749 39.858C77.9055 39.2687 78.1265 38.4697 78.1379 37.461C78.1605 37.1323 78.1719 36.815 78.1719 36.509C78.1719 36.1917 78.1719 35.88 78.1719 35.574C78.1719 35.2567 78.1605 34.945 78.1379 34.639C78.1265 33.653 77.9055 32.8653 77.4749 32.276C77.0555 31.6753 76.4039 31.375 75.5199 31.375C74.6472 31.375 73.9955 31.6753 73.5649 32.276C73.1455 32.8653 72.9245 33.653 72.9019 34.639C72.9019 34.945 72.8962 35.2567 72.8849 35.574C72.8849 35.88 72.8849 36.1917 72.8849 36.509C72.8962 36.815 72.9019 37.1323 72.9019 37.461C72.9245 38.4697 73.1512 39.2687 73.5819 39.858C74.0125 40.436 74.6585 40.725 75.5199 40.725ZM82.2029 42C82.0895 42 81.9932 41.966 81.9139 41.898C81.8459 41.8187 81.8119 41.7223 81.8119 41.609V40.385C81.8119 40.2717 81.8459 40.181 81.9139 40.113C81.9932 40.0337 82.0895 39.994 82.2029 39.994H83.4269C83.5402 39.994 83.6309 40.0337 83.6989 40.113C83.7782 40.181 83.8179 40.2717 83.8179 40.385V41.609C83.8179 41.7223 83.7782 41.8187 83.6989 41.898C83.6309 41.966 83.5402 42 83.4269 42H82.2029ZM90.096 42.17C89.314 42.17 88.651 42.051 88.107 41.813C87.5744 41.5637 87.138 41.2237 86.798 40.793C86.458 40.3623 86.2087 39.8693 86.05 39.314C85.9027 38.7587 85.8177 38.1693 85.795 37.546C85.7837 37.24 85.7724 36.917 85.761 36.577C85.761 36.237 85.761 35.897 85.761 35.557C85.7724 35.2057 85.7837 34.8713 85.795 34.554C85.8064 33.9307 85.8914 33.3413 86.05 32.786C86.22 32.2193 86.4694 31.7263 86.798 31.307C87.138 30.8763 87.58 30.542 88.124 30.304C88.668 30.0547 89.3254 29.93 90.096 29.93C90.878 29.93 91.5354 30.0547 92.068 30.304C92.612 30.542 93.054 30.8763 93.394 31.307C93.734 31.7263 93.9834 32.2193 94.142 32.786C94.312 33.3413 94.4027 33.9307 94.414 34.554C94.4254 34.8713 94.431 35.2057 94.431 35.557C94.4424 35.897 94.4424 36.237 94.431 36.577C94.431 36.917 94.4254 37.24 94.414 37.546C94.4027 38.1693 94.312 38.7587 94.142 39.314C93.9834 39.8693 93.734 40.3623 93.394 40.793C93.0654 41.2237 92.629 41.5637 92.085 41.813C91.5524 42.051 90.8894 42.17 90.096 42.17ZM90.096 40.725C90.98 40.725 91.6317 40.436 92.051 39.858C92.4817 39.2687 92.7027 38.4697 92.714 37.461C92.7367 37.1323 92.748 36.815 92.748 36.509C92.748 36.1917 92.748 35.88 92.748 35.574C92.748 35.2567 92.7367 34.945 92.714 34.639C92.7027 33.653 92.4817 32.8653 92.051 32.276C91.6317 31.6753 90.98 31.375 90.096 31.375C89.2234 31.375 88.5717 31.6753 88.141 32.276C87.7217 32.8653 87.5007 33.653 87.478 34.639C87.478 34.945 87.4724 35.2567 87.461 35.574C87.461 35.88 87.461 36.1917 87.461 36.509C87.4724 36.815 87.478 37.1323 87.478 37.461C87.5007 38.4697 87.7274 39.2687 88.158 39.858C88.5887 40.436 89.2347 40.725 90.096 40.725Z" fill="#828282"/>
<defs>
<clipPath id="clip0_106_1055">
<rect width="20" height="50" fill="white"/>
</clipPath>
</defs>
</svg>
