<svg width="390" height="308" viewBox="0 0 390 308" fill="none" xmlns="http://www.w3.org/2000/svg">
<path d="M197.635 250.693C258.962 250.693 308.676 200.766 308.676 139.177C308.676 77.5887 258.962 27.6614 197.635 27.6614C136.309 27.6614 86.5941 77.5887 86.5941 139.177C86.5941 200.766 136.309 250.693 197.635 250.693Z" stroke="#002346" stroke-linecap="round" stroke-linejoin="round"/>
<path d="M309.303 249.489C309.303 249.489 305.037 265.689 297.23 273.587C297.23 273.587 294.937 276.383 294.216 275.792C293.996 275.612 293.914 275.125 294.095 274.146C294.914 271.837 295.36 269.41 295.414 266.957C295.396 265.432 295.054 263.93 294.405 262.55C293.712 261.021 292.644 258.009 293.955 255.961L300.189 247.536C300.189 247.536 299.581 243.598 303.604 246.183C303.604 246.183 307.181 246.891 308.676 248.257C309.046 248.564 309.275 249.011 309.303 249.489Z" fill="#E1FF00" stroke="#002346" stroke-miterlimit="10"/>
<path d="M311.681 251.099C308.298 263.308 300.127 273.812 297.888 276.528C297.397 277.15 296.671 277.547 295.883 277.624C294.122 277.759 294.171 275.878 294.171 275.878L294.216 275.792C294.937 276.383 297.23 273.587 297.23 273.587C305.037 265.689 309.303 249.489 309.303 249.489C309.271 249.006 309.037 248.56 308.658 248.257C309.492 248.415 310.285 248.744 310.983 249.223C311.595 249.633 311.875 250.386 311.681 251.099Z" fill="white" stroke="#002346" stroke-miterlimit="10"/>
<path d="M293.96 255.961C288.653 248.83 279.468 243.129 279.468 243.129C268.206 236.129 256.043 231.98 256.043 231.98C249.057 231.078 243.993 217.601 243.993 217.601C247.845 216.889 250.994 216.131 253.548 215.391C255.399 214.859 256.935 214.327 258.201 213.835C258.652 213.668 259.057 213.501 259.449 213.33C260.12 213.041 260.697 212.771 261.188 212.527C261.327 212.46 261.458 212.392 261.589 212.315C261.927 212.139 262.215 211.972 262.458 211.824C262.701 211.675 262.864 211.571 263.048 211.449C263.255 211.309 263.458 211.161 263.652 210.998V211.039C262.341 220.84 266.274 220.849 266.274 220.849C276.373 223.956 280.513 228.367 280.513 228.367C285.324 232.643 300.19 247.545 300.19 247.545C303.154 254.017 293.96 255.961 293.96 255.961Z" fill="#F1B2C0" stroke="#002346" stroke-miterlimit="10"/>
<path d="M238.083 257.12C238.083 257.12 242.137 257.12 241.876 260.728C241.876 260.728 236.394 288.795 229.794 293.653C229.794 293.653 226.677 296.066 226.677 291.619L238.083 257.12Z" fill="white" stroke="#002346" stroke-miterlimit="10"/>
<path d="M225.961 279.103C224.519 276.749 221.713 271.178 225.461 268.468C225.461 268.468 229.839 266.889 230.502 259.569V255.248C230.502 255.248 238.637 256.601 238.637 257.616C238.637 257.616 240.633 273.7 227.583 291.984C227.389 292.196 227.065 292.21 226.853 292.02C226.74 291.921 226.682 291.781 226.682 291.632V281.683C226.682 280.772 226.434 279.879 225.961 279.103Z" fill="#1CC574" stroke="#002346" stroke-miterlimit="10"/>
<path d="M230.502 259.569C230.204 266.249 225.461 268.468 225.461 268.468L212.424 258.094C204.316 251.401 191.703 243.012 185.648 239.088C183.846 237.906 181.909 236.95 179.878 236.238C177.45 235.399 176.468 234.433 176.468 234.433C176.468 234.433 184.765 230.081 188.18 224.281C188.18 224.281 188.707 223.591 188.396 221.448C200.527 225.896 212.564 238.948 212.564 238.948L230.502 259.569Z" fill="#F1B2C0" stroke="#002346" stroke-miterlimit="10"/>
<path d="M218.943 293.049C218.943 293.297 218.915 293.549 218.852 293.788C218.605 294.821 217.758 295.601 216.708 295.764C214.217 296.107 210.631 294.862 210.631 294.862C205.802 292.904 197.059 293.364 197.059 293.364C187.621 292.792 184.675 283.442 184.675 283.442C184.671 283.433 184.671 283.424 184.675 283.415C184.662 283.221 184.662 283.031 184.675 282.837C185.409 281.151 192.689 281.714 192.689 281.714C198.64 281.809 202.108 280.429 203.158 279.937C203.487 279.784 203.82 279.64 204.167 279.549C207.316 278.711 207.316 281.489 207.316 281.489L217.542 287.46C218.677 289.016 218.911 291.542 218.938 293.053L218.943 293.049Z" fill="#E1FF00" stroke="#002346" stroke-miterlimit="10"/>
<path d="M218.943 293.811C218.411 304.55 206.834 297.5 206.834 297.5C204.172 295.8 198.392 294.92 195.18 294.546C192.203 294.235 189.45 292.814 187.468 290.568C185.752 288.57 184.765 286.049 184.666 283.419C184.662 283.428 184.662 283.437 184.666 283.446C184.666 283.446 187.612 292.778 197.05 293.369C197.05 293.369 205.793 292.918 210.622 294.866C210.622 294.866 214.226 296.125 216.699 295.768C217.749 295.606 218.596 294.826 218.843 293.793L218.943 293.811Z" fill="white" stroke="#002346" stroke-miterlimit="10"/>
<path d="M217.659 287.925C211.325 291.493 207.969 284.236 207.158 282.138C207.032 281.818 207.091 281.457 207.311 281.196C215.05 271.999 220.055 240.405 218.816 235.755C217.551 231.028 220.537 224.349 220.537 224.349C222.208 221.006 222.956 214.146 223.087 212.888V212.685C224.618 214.16 225.366 214.182 225.366 214.182C233.912 216.803 244.34 218.625 244.34 218.625C244.097 222.107 238.876 227.118 238.876 227.118C236.277 229.995 235.844 233.919 235.844 233.919L233.65 252.682C232.822 257.612 230.65 262.916 228.438 266.889C227.425 268.707 226.425 270.533 225.492 272.387L217.659 287.925Z" fill="#F1B2C0" stroke="#002346" stroke-miterlimit="10"/>
<path d="M289.527 60.1261C289.527 67.7169 281.964 73.7786 279.166 72.8811C278.752 72.7458 278.202 72.385 277.143 72.2091C275.522 71.9384 274.445 72.3895 273.796 72.4616C270.778 72.7999 265.927 66.233 265.927 59.3819C265.927 56.7795 266.702 53.9696 268.756 52.2197C271.459 49.9239 274.486 51.3672 277.648 51.3672C280.396 51.3672 284.256 50.2397 286.356 51.7912C289.013 53.7531 289.527 57.0501 289.527 60.1261Z" fill="#1CC574" stroke="#002346" stroke-miterlimit="10"/>
<path d="M277.022 52.3278L277.229 51.8362L280.175 44.9626L278.22 44.6604L276.27 51.5746L277.022 52.3278Z" fill="white" stroke="#002346" stroke-miterlimit="10"/>
<path d="M277.472 47.6687C277.472 47.6687 276.121 44.6604 274.166 44.2093C272.211 43.7583 266.81 46.3156 266.81 46.3156C266.81 46.3156 269.512 48.2686 271.616 48.8684C273.72 49.4683 277.472 47.6687 277.472 47.6687Z" fill="#7CD295" stroke="#002346" stroke-miterlimit="10"/>
<path d="M109.838 65.8902H112.893L116.217 59.6481L119.587 67.0719L120.163 65.5429H124.389L128.893 55.3137L131.79 64.8393H137.078C140.146 61.2763 139.948 55.9451 136.628 52.6166C133.11 49.1076 127.425 49.1076 123.907 52.6166L122.979 53.5457L122.046 52.6121C118.334 49.2925 112.64 49.6128 109.325 53.3247C106.266 56.748 106.266 61.9257 109.325 65.349L109.838 65.8902Z" fill="#1CC574" stroke="#002346" stroke-miterlimit="10"/>
<path d="M130.614 66.4178L128.614 59.8374L125.416 67.1169H121.253L119.726 71.1897L116.104 63.2066L113.834 67.4687H111.415L122.956 79.024L135.547 66.4178H130.614Z" fill="#1CC574" stroke="#002346" stroke-miterlimit="10"/>
<path d="M80.837 119.431C80.837 119.431 80.2694 117.537 78.5847 117.176C76.8999 116.815 73.2916 117.366 72.7285 115.286C72.1654 113.207 74.8097 113.771 74.2421 112.066C73.6745 110.361 69.5122 110.361 68.5662 107.141C67.6202 103.92 68.9446 100.515 71.4041 101.652C73.8637 102.788 75.0079 107.515 75.9449 109.414C76.8819 111.313 76.7017 107.52 79.346 107.159C81.9902 106.798 84.6435 108.864 82.9497 111.516C81.256 114.168 81.3145 116.229 81.6253 117.573C81.8416 118.516 81.8956 118.443 81.8956 118.443L80.837 119.431Z" fill="#7CD295" stroke="#002346" stroke-miterlimit="10"/>
<path d="M86.7697 116.364C86.7697 116.364 78.1072 118.078 78.1072 126.287C78.1072 134.495 101.442 150.516 103.171 147.485C104.901 144.454 96.4143 126.526 94.2476 122.633C92.0808 118.741 89.7924 115.913 86.7697 116.364Z" fill="#E6E7E8" stroke="#002346" stroke-linecap="round" stroke-linejoin="round"/>
<path d="M80.6478 132.308C80.6478 132.308 83.675 127.762 86.504 126.445" stroke="#002346" stroke-linecap="round" stroke-linejoin="round"/>
<path d="M95.7792 127.762C93.662 128.646 91.734 129.936 90.1033 131.55" stroke="#002346" stroke-linecap="round" stroke-linejoin="round"/>
<path d="M91.6213 141.775C91.6213 141.775 92.9457 138.365 96.1576 136.66" stroke="#002346" stroke-linecap="round" stroke-linejoin="round"/>
<path d="M91.0492 123.788L89.1572 124.925" stroke="#002346" stroke-linecap="round" stroke-linejoin="round"/>
<path d="M98.8018 135.334L97.4774 135.713" stroke="#002346" stroke-linecap="round" stroke-linejoin="round"/>
<path d="M95.7882 200.936C103.563 200.936 109.865 194.626 109.865 186.841C109.865 179.057 103.563 172.747 95.7882 172.747C88.0135 172.747 81.7109 179.057 81.7109 186.841C81.7109 194.626 88.0135 200.936 95.7882 200.936Z" fill="#E1FF00" stroke="#002346" stroke-miterlimit="10"/>
<path d="M99.455 177.063C99.455 179.472 97.2657 184.663 95.7882 184.663C94.3106 184.663 92.1213 179.472 92.1213 177.063C92.1213 174.655 94.3106 173.942 95.7882 173.942C97.2657 173.942 99.455 174.655 99.455 177.063Z" fill="white" stroke="#002346" stroke-linecap="round" stroke-linejoin="round"/>
<path d="M89.1618 178.772C91.2475 179.977 94.8603 183.946 94.117 185.227C93.3737 186.508 87.5762 186.336 85.4905 185.132C83.4048 183.928 83.8868 181.673 84.6256 180.392C85.3643 179.111 87.0806 177.568 89.1618 178.772Z" fill="white" stroke="#002346" stroke-linecap="round" stroke-linejoin="round"/>
<path d="M85.4949 188.551C87.5806 187.346 93.5358 186.296 94.2746 187.572C95.0134 188.848 91.2474 193.706 89.1617 194.91C87.0761 196.114 85.3688 194.572 84.63 193.291C83.8912 192.01 83.4137 189.755 85.4949 188.551Z" fill="white" stroke="#002346" stroke-linecap="round" stroke-linejoin="round"/>
<path d="M92.1213 196.619C92.1213 194.211 94.3106 188.339 95.7882 188.339C97.2657 188.339 99.455 194.202 99.455 196.619C99.455 199.037 97.2657 199.741 95.7882 199.741C94.3106 199.741 92.1213 199.028 92.1213 196.619Z" fill="white" stroke="#002346" stroke-linecap="round" stroke-linejoin="round"/>
<path d="M102.433 194.91C100.351 193.706 96.9234 189.16 97.6622 187.879C98.4009 186.598 104.018 187.346 106.099 188.551C108.181 189.755 107.703 192.01 106.969 193.291C106.235 194.572 104.496 196.114 102.433 194.91Z" fill="white" stroke="#002346" stroke-linecap="round" stroke-linejoin="round"/>
<path d="M106.077 185.132C103.996 186.336 98.3784 186.864 97.6396 185.583C96.9008 184.302 100.342 179.977 102.41 178.772C104.478 177.568 106.208 179.111 106.946 180.392C107.685 181.673 108.163 183.928 106.077 185.132Z" fill="white" stroke="#002346" stroke-linecap="round" stroke-linejoin="round"/>
<path d="M253.597 215.247C253.597 215.247 262.728 212.477 267.684 210.673C267.684 210.673 263.026 196.773 261.269 190.242C260.571 191.681 260.039 193.192 259.679 194.752L254.958 211.476L253.597 215.247Z" fill="#1CC574" stroke="#002346" stroke-miterlimit="10"/>
<path d="M252.367 220.596L259.679 194.734C260.102 193.196 260.634 191.69 261.269 190.224C262.336 187.779 263.972 182.913 262.62 178.678L261.228 172.165L249.286 165.21L224.281 177.726C224.281 177.726 222.186 204.81 220.384 214.282L252.367 220.596Z" fill="#1CC574" stroke="#002346" stroke-miterlimit="10"/>
<path d="M211.789 128.709C211.613 129.448 212.023 130.202 212.735 130.463L216.888 131.983C216.888 131.983 218.821 131.618 219.947 138.388C219.947 138.388 222.042 171.597 224.294 177.722C224.294 177.722 258.426 171.759 262.616 178.691C262.616 178.691 263.418 174.659 261.003 166.437C261.003 166.437 257.782 133.715 258.751 117.753L268.733 122.751C268.733 122.751 272.436 116.463 277.743 117.753C279.265 117.411 280.86 117.767 282.09 118.723C282.09 118.723 280.806 114.691 275.333 110.659L259.715 96.6364C259.715 96.6364 256.818 93.0913 248.453 93.2492L240.538 91.7112H232.011L224.776 101.498C224.776 101.498 217.519 102.116 215.267 113.884L211.789 128.704V128.709Z" fill="#E1FF00" stroke="#002346" stroke-miterlimit="10"/>
<path d="M148.083 140.088L140.124 132.583C139.718 132.2 139.223 131.934 138.682 131.803C136.11 131.189 128.402 128.97 130.862 124.825C130.862 124.825 130.024 122.3 131.808 121.984C131.808 121.984 130.97 119.355 133.159 119.355C133.159 119.355 131.056 117.248 134.511 117.352C134.511 117.352 136.209 116.933 138.777 118.827C140.664 120.523 141.993 122.751 142.588 125.218C142.682 125.579 142.867 125.912 143.124 126.183L147.674 129.999C147.674 129.999 147.836 137.31 148.083 140.088Z" fill="#F1B2C0" stroke="#002346" stroke-miterlimit="10"/>
<path d="M153.683 88.7211C153.683 88.7211 161.174 95.4865 151.678 105.251L153.66 104.493C153.66 104.493 159.611 103.79 169.774 92.1804C169.774 92.1804 170.044 91.7565 171.913 91.0439C171.913 91.0439 169.395 90.3809 168.458 86.917L170.296 80.9815L167.219 74.7935L153.683 88.7211Z" fill="#F1B2C0" stroke="#002346" stroke-miterlimit="10"/>
<path d="M177.788 91.7519C177.788 91.7519 172.026 89.614 169.774 92.1803C169.774 92.1803 160.566 102.815 153.66 104.493C152.345 104.786 151.133 105.436 150.16 106.37C146.804 109.712 140.669 117.853 146.8 128.343C146.8 128.343 148.309 142.569 149.876 153.718L150.597 160.601C150.597 160.601 158.188 153.001 169.269 152.897L179.531 152.793C179.531 152.793 174.504 138.361 178.504 130.008C178.504 130.008 185.391 118.376 185.076 113.703L177.788 91.7519Z" fill="#1CC574" stroke="#002346" stroke-miterlimit="10"/>
<path d="M160.566 241.501C161.552 258.347 153.516 274.696 153.516 274.696C151.084 281.304 152.318 285.431 152.318 285.431C141.43 292.864 139.939 276.676 139.939 276.676C145.385 271.891 143.912 235.39 143.912 235.39C143.511 230.992 143.511 226.572 143.912 222.175C144.489 224.966 147.277 223.925 147.277 223.925C148.714 224.515 150.192 225.012 151.692 225.413C158.827 226.991 160.935 227.839 160.935 227.839L160.566 241.501Z" fill="#F1B2C0" stroke="#002346" stroke-miterlimit="10"/>
<path d="M152.962 292.755C152.633 295.119 149.584 295.056 147.173 294.618C145.89 294.402 144.642 293.996 143.475 293.418C140.07 291.682 133.795 291.926 133.795 291.926C120.798 293.581 116.465 283.433 116.465 283.433C115.6 281.931 115.65 281.015 116.123 280.474C117.154 279.265 120.244 279.834 120.244 279.834C127.159 280.479 136.461 277.339 136.461 277.339C139.871 275.035 139.939 276.676 139.939 276.676C139.939 276.676 141.43 292.864 152.318 285.431L152.962 292.755Z" fill="#1CC574" stroke="#002346" stroke-miterlimit="10"/>
<path d="M152.962 292.755C152.593 303.463 140.889 296.715 140.889 296.715C137.939 294.889 134.488 294.045 131.029 294.316C118.217 293.31 115.415 284.357 115.415 284.357C113.343 280.298 116.114 280.474 116.114 280.474C115.641 281.015 115.591 281.931 116.456 283.433C116.456 283.433 120.789 293.581 133.785 291.926C133.785 291.926 140.061 291.682 143.466 293.418C144.633 293.996 145.881 294.402 147.164 294.618C149.584 295.056 152.633 295.119 152.962 292.755Z" fill="white" stroke="#002346" stroke-miterlimit="10"/>
<path d="M222.591 88.4009C222.591 88.4009 225.128 91.4182 225.393 98.6166C225.461 100.222 224.871 101.783 223.758 102.937C222.24 104.489 220.267 107.15 220.663 110.226C220.749 110.97 221.416 111.502 222.159 111.417C222.281 111.403 222.402 111.372 222.515 111.326C224.046 110.7 226.569 108.99 229.024 104.327C229.024 104.327 235.331 92.2932 240.516 91.6978L239.678 89.9479C238.844 88.2024 238.349 86.3126 238.223 84.3822L237.867 78.9519L222.587 88.4009H222.591Z" fill="#F1B2C0" stroke="#002346" stroke-miterlimit="10"/>
<path d="M217.979 132.646C217.979 132.646 217.375 129.913 218.51 123.869" stroke="#002346" stroke-linecap="round" stroke-linejoin="round"/>
<path d="M248.984 140.832C252.408 138.252 255.967 135.406 259.647 133.205C259.647 133.205 268.233 125.042 268.706 122.755C268.706 122.755 271.977 117.257 276.684 117.591C277.364 117.641 278.049 117.636 278.729 117.596C279.639 117.541 280.986 117.681 282.063 118.728C282.063 118.728 288.405 126.332 282.063 130.517C282.063 130.517 267.611 140.616 257.102 145.825C254.877 146.935 252.886 148.468 251.246 150.335C249.246 152.591 246.056 155.558 242.286 156.794C242.286 156.794 239.453 158.571 239.453 156.794C239.453 156.794 237.051 157.904 236.885 155.739C236.885 155.739 232.758 155.585 234.975 152.374C234.975 152.374 233.015 150.854 236.029 148.157C236.029 148.157 238.993 142.551 242.615 142.686L246.354 141.987C247.309 141.811 248.21 141.414 248.984 140.832Z" fill="#F1B2C0" stroke="#002346" stroke-miterlimit="10"/>
<path d="M185.563 113.956C184.77 113.428 183.761 113.356 182.896 113.757C179.242 115.453 169.188 118.899 166.228 107.217C166.228 107.217 163.589 98.4044 175.188 92.496C176.936 91.6075 178.977 91.4767 180.824 92.1397C183.9 93.2492 188.648 96.1989 193.437 103.984C193.878 104.705 194.437 105.35 195.09 105.891C198.739 108.9 211.181 119.769 211.429 128.316C211.451 129.566 210.681 130.689 209.51 131.117C206.982 132.064 201.095 133.593 188.072 134.622C188.072 134.622 179.99 134.622 176.395 136.877C176.395 136.877 169.719 140.512 163.782 139.475C163.269 139.393 162.917 138.911 162.998 138.397V138.352C163.057 138.108 163.165 137.874 163.314 137.671C163.314 137.671 160.287 138.329 160.552 135.957C160.552 135.957 157.124 137.143 158.048 133.977C158.048 133.977 156.548 133.697 156.633 132.421C156.674 131.983 156.877 131.582 157.201 131.289L158.413 130.152C158.453 130.116 158.422 130.048 158.368 130.057C157.705 130.179 155.458 130.468 155.286 128.785C155.273 128.668 155.372 128.564 155.489 128.555C156.935 128.429 158.368 128.204 159.782 127.883C163.368 126.914 167.156 127.193 170.539 128.65C171.643 129.124 172.855 129.282 174.044 129.124C178.355 128.542 188.464 126.778 194.604 122.48C194.797 122.354 194.847 122.092 194.721 121.898C194.689 121.853 194.649 121.813 194.604 121.781L185.563 113.96V113.956Z" fill="#F1B2C0" stroke="#002346" stroke-miterlimit="10"/>
<path d="M131.56 127.441C132.691 127.595 134.353 127.649 134.349 126.616C134.349 126.499 134.425 126.395 134.538 126.363C135.02 126.219 136.132 125.741 135.542 124.429C135.52 124.379 135.556 124.32 135.61 124.325C135.988 124.356 137.137 124.37 137.376 123.36C137.475 122.904 137.322 122.431 136.975 122.119C135.862 121.005 134.583 120.072 133.177 119.364C133.177 119.364 131.074 119.075 131.826 121.993C131.826 121.993 130.011 122.394 130.826 124.686C130.857 124.771 130.853 124.866 130.803 124.943C130.713 125.087 130.56 125.362 130.457 125.691C130.2 126.49 130.736 127.324 131.565 127.437L131.56 127.441Z" fill="#F1B2C0" stroke="#002346" stroke-miterlimit="10"/>
<path d="M239.738 73.0871C241.591 67.4774 238.552 61.4262 232.951 59.5714C227.349 57.7165 221.306 60.7604 219.453 66.3701L216.215 76.1719C214.362 81.7816 217.401 87.8328 223.003 89.6877C228.604 91.5425 234.647 88.4986 236.5 82.8889L239.738 73.0871Z" fill="#F1B2C0" stroke="#002346" stroke-miterlimit="10"/>
<path d="M229.848 57.862C229.848 57.862 244.313 53.7622 247.525 67.2749C247.62 67.6672 247.665 68.0687 247.669 68.4701C247.719 71.3701 247.354 81.667 238.403 85.7398L237.853 78.9519L234.123 74.7979C234.123 74.7979 232.817 75.939 233.083 71.3927L233.249 67.8116C233.313 66.4811 232.308 65.34 230.984 65.2407C227.06 64.9476 219.573 63.6306 218.596 57.9071C218.492 57.2982 218.681 56.6713 219.091 56.2112C220.321 54.8266 223.582 52.6662 229.848 57.8665V57.862Z" fill="#002346" stroke="#002346" stroke-miterlimit="10"/>
<path d="M239.321 76.9721C240.158 74.9494 239.678 72.8288 238.249 72.2357C236.819 71.6425 234.982 72.8014 234.144 74.8241C233.307 76.8468 233.787 78.9674 235.217 79.5606C236.646 80.1538 238.484 78.9949 239.321 76.9721Z" fill="#F1B2C0" stroke="#002346" stroke-miterlimit="10"/>
<path d="M202.05 135.943C202.951 136.268 214.911 148.572 220.253 143.056L219.934 138.392C219.934 138.392 219.483 132.948 216.875 131.988L214.15 130.987L210.235 131.28C210.176 131.28 210.136 131.208 210.181 131.167C210.825 130.572 210.794 129.43 210.546 128.56C210.915 127.572 210.528 126.463 209.622 125.922C209.622 125.922 200.667 121.375 200.077 126.517C199.185 127.527 198.955 128.966 199.482 130.206C199.482 130.206 198.41 132.132 199.865 133.043C200.068 133.169 200.185 133.413 200.149 133.652C200.068 134.234 200.225 135.298 202.05 135.943Z" fill="#F1B2C0" stroke="#002346" stroke-miterlimit="10"/>
<path d="M209.645 128.258C209.645 128.258 204.834 125.791 200.027 126.517" stroke="#002346" stroke-linecap="round" stroke-linejoin="round"/>
<path d="M208.996 130.472C208.996 130.472 202.838 128.754 199.662 130.391" stroke="#002346" stroke-linecap="round" stroke-linejoin="round"/>
<path d="M200.113 133.999C200.113 133.999 201.915 131.744 206.428 131.658" stroke="#002346" stroke-linecap="round" stroke-linejoin="round"/>
<path d="M235.006 152.356L240.516 147.765" stroke="#002346" stroke-linecap="round" stroke-linejoin="round"/>
<path d="M236.916 155.721L242.309 150.737" stroke="#002346" stroke-linecap="round" stroke-linejoin="round"/>
<path d="M239.484 156.776L243.619 153.231" stroke="#002346" stroke-linecap="round" stroke-linejoin="round"/>
<path d="M164.638 70.8018C164.638 65.3043 160.187 60.8477 154.696 60.8477C149.206 60.8477 144.754 65.3043 144.754 70.8018V78.7894C144.754 84.2869 149.206 88.7435 154.696 88.7435C160.187 88.7435 164.638 84.2869 164.638 78.7894V70.8018Z" fill="#F1B2C0" stroke="#002346" stroke-miterlimit="10"/>
<path d="M164.494 61.8638C167.541 61.7338 169.897 58.9533 169.757 55.6533C169.617 52.3533 167.032 49.7835 163.985 49.9135C160.938 50.0435 158.581 52.8241 158.721 56.1241C158.862 59.4241 161.446 61.9939 164.494 61.8638Z" fill="#002346" stroke="#002346" stroke-miterlimit="10"/>
<path d="M161.347 64.2847C163.691 64.1847 165.503 62.0458 165.395 59.5073C165.287 56.9689 163.299 54.9921 160.956 55.0921C158.612 55.1921 156.799 57.331 156.907 59.8695C157.015 62.4079 159.003 64.3847 161.347 64.2847Z" fill="#1CC574" stroke="#002346" stroke-miterlimit="10"/>
<path d="M148.345 67.9737C149.584 68.9434 152.201 70.3776 156.976 70.5716C156.976 70.5716 156.881 73.8415 160.76 76.5521C161.886 77.3369 162.733 78.5321 163.093 79.9258C163.661 82.1448 163.526 84.4676 160.147 87.5075C160.147 87.5075 162.354 88.6982 164.913 88.5223C165.931 88.4502 166.891 88.0397 167.737 87.4399C168.661 86.7859 170.377 85.8072 172.634 85.5907C174.062 85.4554 175.332 84.4586 175.828 83.0018C176.49 81.0669 175.941 77.9548 173.594 72.1998C173.594 72.1998 168.404 55.8095 157.21 56.2876C157.21 56.2876 152.016 55.6381 147.723 58.3713C143.399 61.1271 143.11 70.0845 144.98 73.7152L145.646 71.8976C146.187 70.4272 146.291 70.1386 146.561 68.7043C146.588 68.56 146.637 68.4202 146.709 68.2984C147.056 67.6985 147.809 67.5452 148.345 67.9646V67.9737Z" fill="#002346" stroke="#002346" stroke-miterlimit="10"/>
<path d="M167.235 75.3622C167.371 73.9664 166.687 72.7578 165.709 72.6628C164.731 72.5679 163.828 73.6224 163.693 75.0183C163.558 76.4141 164.241 77.6227 165.219 77.7176C166.198 77.8126 167.1 76.7581 167.235 75.3622Z" fill="#F1B2C0" stroke="#002346" stroke-miterlimit="10"/>
<path d="M146.8 128.344C146.8 128.344 149.228 131.117 153.498 129.854" stroke="#002346" stroke-linecap="round" stroke-linejoin="round"/>
<path d="M158.048 133.977L161.462 131.289" stroke="#002346" stroke-linecap="round" stroke-linejoin="round"/>
<path d="M160.552 135.957L163.823 133.449" stroke="#002346" stroke-linecap="round" stroke-linejoin="round"/>
<path d="M163.314 137.671L166.512 135.204" stroke="#002346" stroke-linecap="round" stroke-linejoin="round"/>
<path d="M131.826 121.993L135.547 124.429" stroke="#002346" stroke-linecap="round" stroke-linejoin="round"/>
<path d="M134.542 126.359L130.803 124.943" stroke="#002346" stroke-linecap="round" stroke-linejoin="round"/>
<path d="M175.337 236.382C172.184 229.616 166.472 216.902 166.472 216.902C165.688 218.968 164.976 224.204 163.174 230.067L139.299 223.753C144.597 209.275 151.687 181.636 152.331 173.067C152.475 171.367 152.264 169.653 151.719 168.038C150.62 164.881 150.606 160.601 150.606 160.601C160.543 151.905 169.274 152.897 169.274 152.897L179.531 152.793C192.351 166.834 188.189 180.829 185.873 186.097C185.153 187.743 184.846 189.538 184.972 191.329L195.158 221.949L175.337 236.382Z" fill="#E1FF00" stroke="#002346" stroke-miterlimit="10"/>
<path d="M166.472 216.902C166.328 216.988 172.368 187.378 172.368 187.378" stroke="#002346" stroke-linecap="round" stroke-linejoin="round"/>
<path d="M258.751 117.758L249.566 111.403" stroke="#002346" stroke-linecap="round" stroke-linejoin="round"/>
<path d="M300.343 196.692C307.433 196.692 313.181 190.937 313.181 183.838C313.181 176.738 307.433 170.983 300.343 170.983C293.252 170.983 287.504 176.738 287.504 183.838C287.504 190.937 293.252 196.692 300.343 196.692Z" fill="#1CC574" stroke="#002346" stroke-miterlimit="10"/>
<path d="M300.343 194.437C306.189 194.437 310.929 189.691 310.929 183.838C310.929 177.984 306.189 173.239 300.343 173.239C294.496 173.239 289.757 177.984 289.757 183.838C289.757 189.691 294.496 194.437 300.343 194.437Z" fill="white" stroke="#002346" stroke-miterlimit="10"/>
<path d="M300.343 184.965C300.965 184.965 301.469 184.46 301.469 183.838C301.469 183.215 300.965 182.71 300.343 182.71C299.721 182.71 299.217 183.215 299.217 183.838C299.217 184.46 299.721 184.965 300.343 184.965Z" fill="#1CC574" stroke="#002346" stroke-miterlimit="10"/>
<path d="M300.343 182.71V175.76" stroke="#002346" stroke-linecap="round" stroke-linejoin="round"/>
<path d="M301.095 184.672L304.172 188.122" stroke="#002346" stroke-linecap="round" stroke-linejoin="round"/>
<path d="M308.001 140.765C315.589 140.765 321.74 134.606 321.74 127.008C321.74 119.411 315.589 113.252 308.001 113.252C300.413 113.252 294.261 119.411 294.261 127.008C294.261 134.606 300.413 140.765 308.001 140.765Z" fill="#E1FF00" stroke="#002346" stroke-miterlimit="10"/>
<path d="M307.257 113.324C307.257 113.324 314.1 114.926 316.771 122.174C318.546 126.991 317.74 132.461 314.357 136.322C312.605 138.325 310.019 140.097 306.235 140.539" stroke="#002346" stroke-linecap="round" stroke-linejoin="round"/>
<path d="M294.261 127.009C294.261 127.009 310.929 136.99 321.74 127.599" stroke="#002346" stroke-linecap="round" stroke-linejoin="round"/>
<path d="M297.383 118.277C297.383 118.277 303.509 116.211 307.406 120.825C308.077 121.619 308.821 122.349 309.694 122.913C312.068 124.451 316.587 126.318 320.907 122.268" stroke="#002346" stroke-linecap="round" stroke-linejoin="round"/>
<path d="M297.383 135.74C297.383 135.74 300.919 139.046 307.519 136.769C308.302 136.498 309.059 136.137 309.789 135.745C311.487 134.834 316.096 132.781 318.614 135.74" stroke="#002346" stroke-linecap="round" stroke-linejoin="round"/>
<path d="M266.81 46.3157C266.81 46.3157 271.945 44.7777 277.472 47.6688" stroke="#002346" stroke-linecap="round" stroke-linejoin="round"/>
<path d="M204.825 50.5238H194.369C193.554 50.5238 192.887 49.8608 192.887 49.04V19.1686C192.887 18.659 193.059 18.1628 193.378 17.7659L197.64 12.4123C197.973 11.9928 198.153 11.4741 198.153 10.9374V9.40845H201.275V10.9013C201.275 11.42 201.446 11.9252 201.757 12.3356L205.838 17.6938C206.136 18.0862 206.298 18.5642 206.298 19.0559V49.04C206.298 49.8563 205.636 50.5238 204.816 50.5238H204.825Z" fill="white" stroke="#002346" stroke-linecap="round" stroke-linejoin="round"/>
<path d="M194.383 29.2671V48.1019C194.383 48.5484 194.743 48.9092 195.189 48.9092H204C204.446 48.9092 204.807 48.5484 204.807 48.1019V29.2671H194.383Z" fill="#1CC574" stroke="#002346" stroke-miterlimit="10"/>
<path d="M201.807 8.2312H197.613V10.5946H201.807V8.2312Z" fill="#002346" stroke="#002346" stroke-miterlimit="10"/>
<path d="M71.8817 106.207C71.8817 106.207 71.5798 108.291 75.6296 111.29C78.0711 113.099 80.0532 115.485 81.1839 118.308C81.2605 118.498 81.3371 118.696 81.4091 118.895" stroke="#002346" stroke-linecap="round" stroke-linejoin="round"/>
</svg>
