<svg width="37" height="37" viewBox="0 0 37 37" fill="none" xmlns="http://www.w3.org/2000/svg">
<g clip-path="url(#clip0_204_461)">
<path fill-rule="evenodd" clip-rule="evenodd" d="M24.0275 6.24717C25.3399 4.72619 26.2245 2.60776 25.9824 0.5C24.0913 0.572 21.8033 1.70806 20.4473 3.22725C19.2296 4.57543 18.1667 6.72961 18.4524 8.796C20.562 8.95258 22.7152 7.76993 24.0275 6.24717ZM28.7581 19.625C28.8109 25.0735 33.7453 26.886 33.7999 26.9094C33.7599 27.0372 33.0118 29.4919 31.2008 32.0299C29.6336 34.2223 28.0082 36.4057 25.4473 36.4525C22.9318 36.4975 22.1218 35.0234 19.2442 35.0234C16.3683 35.0234 15.4692 36.4056 13.0884 36.4974C10.6167 36.5856 8.7328 34.1254 7.15473 31.9402C3.92577 27.4709 1.45947 19.3102 4.77215 13.8022C6.41757 11.0681 9.35711 9.33402 12.5497 9.29082C14.9759 9.24582 17.2675 10.8553 18.7509 10.8553C20.2344 10.8553 23.0192 8.92029 25.946 9.20469C27.1709 9.25329 30.611 9.67794 32.8189 12.7757C32.6405 12.8819 28.7144 15.0711 28.7581 19.625Z" fill="black"/>
</g>
<defs>
<clipPath id="clip0_204_461">
<rect width="36" height="36" fill="white" transform="translate(0.5 0.5)"/>
</clipPath>
</defs>
</svg>
