<svg width="390" height="844" viewBox="0 0 390 844" fill="none" xmlns="http://www.w3.org/2000/svg">
<g clip-path="url(#clip0_103_487)">
<rect width="390" height="844" fill="#222222"/>
<path d="M157.382 -171.958C144.972 -153.052 137.718 -136.984 132.546 -116.743C124.715 -86.115 124.573 -55.3714 132.076 -31.7271C140.467 -5.49438 155.631 14.3137 185.054 37.589C193.996 44.6807 221.36 63.9025 233.131 71.3153C245.771 79.3103 274.705 99.4785 285.676 107.929C318.274 132.964 346.074 162.338 359.055 185.404C367.087 199.648 368.901 204.691 372.271 222.054C374.219 231.908 375.339 239.475 375.726 244.612C376.006 248.891 376.325 252.409 376.397 252.457C376.47 252.506 377.462 252.121 378.551 251.592C381.117 250.269 386.625 241.896 391.156 232.396C401.53 210.5 406.043 187.876 404.852 163.74C404.367 153.66 400.207 132.622 396.676 122.389C386.911 93.9779 370.155 67.072 344.951 39.0699C330.298 22.8038 317.089 10.0218 280.326 -23.3624C249.392 -51.427 233.504 -66.9468 216.295 -85.9744C188.003 -117.199 172.59 -144.621 166.769 -174.062C165.86 -178.656 164.877 -182.357 164.635 -182.309C164.333 -182.249 161.107 -177.593 157.382 -171.958Z" fill="#282727"/>
<path d="M209.08 97.5343C205.737 100.33 198.505 117.146 194.739 130.829C190.045 148.087 189.328 160.351 192.16 174.993C194.623 187.446 198.748 196.871 205.993 206.182C214.106 216.704 222.951 223.94 251.56 243.419C292.458 271.339 306.782 282.77 320.095 297.981C328.789 307.948 335.307 318.345 339.936 329.68C342.112 334.967 343.108 338.413 344.853 347.24C346.12 353.334 347.282 358.255 347.463 358.219C347.705 358.171 349.513 355.553 351.527 352.392C357.278 343.343 360.295 334.77 362.003 322.749C363.723 310.79 363.482 304.807 360.912 291.81C358.904 281.653 358.22 279.464 355.478 272.907C344.017 246.087 330.128 229.231 287.442 190.358C256.809 162.547 249.439 155.145 238.902 141.899C228.619 128.979 222.681 118.97 217.259 105.216C214.507 98.2848 212.82 95.7912 211.138 96.1858C210.787 96.3179 209.831 96.8836 209.08 97.5343Z" fill="#282727"/>
<path d="M-1.73783 505.736C-14.1485 524.643 -21.4025 540.71 -26.5743 560.951C-34.4052 591.579 -34.5473 622.323 -27.0446 645.967C-18.6531 672.2 -3.48887 692.008 25.9335 715.283C34.8761 722.375 62.2403 741.597 74.0111 749.01C86.6511 757.005 115.585 777.173 126.555 785.623C159.154 810.658 186.954 840.033 199.935 863.098C207.967 877.342 209.781 882.386 213.151 899.748C215.099 909.602 216.219 917.17 216.606 922.307C216.886 926.586 217.205 930.103 217.277 930.152C217.35 930.2 218.342 929.816 219.431 929.287C221.997 927.964 227.505 919.59 232.036 910.091C242.41 888.194 246.923 865.57 245.732 841.434C245.247 831.354 241.087 810.316 237.556 800.084C227.791 771.672 211.035 744.766 185.83 716.764C171.178 700.498 157.969 687.716 121.206 654.332C90.2714 626.267 74.3842 610.748 57.175 591.72C28.8828 560.496 13.4698 533.073 7.64865 503.632C6.74021 499.038 5.7572 495.338 5.5153 495.385C5.21292 495.445 1.98649 500.102 -1.73783 505.736Z" fill="#282727"/>
<path d="M49.9597 775.229C46.6166 778.024 39.3851 794.841 35.6184 808.523C30.9248 825.781 30.2079 838.046 33.0401 852.687C35.5025 865.141 39.628 874.565 46.873 883.876C54.9857 894.398 63.8312 901.634 92.4401 921.113C133.337 949.033 147.662 960.464 160.975 975.676C169.669 985.643 176.186 996.04 180.815 1007.37C182.992 1012.66 183.987 1016.11 185.733 1024.93C187 1031.03 188.162 1035.95 188.343 1035.91C188.585 1035.87 190.393 1033.25 192.407 1030.09C198.158 1021.04 201.175 1012.46 202.883 1000.44C204.603 988.484 204.362 982.501 201.792 969.504C199.784 959.348 199.1 957.159 196.358 950.602C184.897 923.781 171.008 906.925 128.322 868.052C97.6886 840.242 90.3184 832.84 79.7818 819.593C69.4984 806.673 63.5607 796.664 58.1393 782.911C55.3864 775.979 53.6994 773.486 52.0181 773.88C51.6672 774.012 50.7108 774.578 49.9597 775.229Z" fill="#282727"/>
<path d="M181.989 325.825C178.685 329.192 176.55 332.186 174.673 336.119C171.831 342.069 170.558 348.353 171.137 353.493C171.792 359.199 174.094 363.864 179.173 369.814C180.716 371.626 185.538 376.664 187.647 378.656C189.91 380.802 195.015 386.096 196.918 388.268C202.575 394.707 207.076 401.839 208.799 407.082C209.866 410.321 210.033 411.426 210.02 415.114C210.02 417.209 209.943 418.802 209.815 419.869C209.699 420.756 209.622 421.488 209.635 421.501C209.648 421.514 209.866 421.475 210.11 421.411C210.689 421.244 212.155 419.753 213.467 417.993C216.475 413.932 218.314 409.485 219.047 404.499C219.356 402.417 219.356 397.945 219.047 395.709C218.198 389.502 215.858 383.321 211.834 376.574C209.493 372.654 207.307 369.506 201.135 361.191C195.941 354.2 193.317 350.383 190.566 345.795C186.04 338.265 183.995 332.032 183.995 325.773C183.995 324.797 183.944 324 183.892 324C183.828 324 182.979 324.823 181.989 325.825Z" fill="url(#paint0_linear_103_487)"/>
<path d="M181.668 383.051C180.87 383.488 178.71 386.636 177.386 389.283C175.727 392.625 175.084 395.105 175.071 398.215C175.071 400.862 175.534 402.957 176.64 405.155C177.874 407.635 179.392 409.473 184.458 414.613C191.697 421.977 194.166 424.894 196.275 428.544C197.651 430.934 198.564 433.324 199.052 435.83C199.284 437 199.348 437.745 199.348 439.621C199.361 440.919 199.399 441.973 199.438 441.973C199.489 441.973 199.965 441.51 200.505 440.945C202.048 439.326 203.013 437.693 203.848 435.303C204.684 432.926 204.877 431.692 204.877 428.929C204.877 426.77 204.826 426.295 204.53 424.842C203.27 418.892 201.11 414.883 193.947 405.206C188.804 398.279 187.595 396.467 185.975 393.332C184.394 390.273 183.584 387.986 183.031 384.953C182.748 383.423 182.503 382.845 182.143 382.858C182.066 382.871 181.848 382.948 181.668 383.051Z" fill="url(#paint1_linear_103_487)"/>
<path d="M116.021 476.736H123.509V510H116.021V495.888H103.445V510H95.9572V476.736H103.445V489.456H116.021V476.736ZM129.527 497.568C129.527 495.328 129.863 493.376 130.535 491.712C131.239 490.016 132.151 488.608 133.271 487.488C134.391 486.368 135.671 485.52 137.111 484.944C138.583 484.368 140.087 484.08 141.623 484.08C145.207 484.08 148.039 485.184 150.119 487.392C152.199 489.568 153.239 492.784 153.239 497.04C153.239 497.456 153.223 497.92 153.191 498.432C153.159 498.912 153.127 499.344 153.095 499.728H136.871C137.031 501.2 137.719 502.368 138.935 503.232C140.151 504.096 141.783 504.528 143.831 504.528C145.143 504.528 146.423 504.416 147.671 504.192C148.951 503.936 149.991 503.632 150.791 503.28L151.751 509.088C151.367 509.28 150.855 509.472 150.215 509.664C149.575 509.856 148.855 510.016 148.055 510.144C147.287 510.304 146.455 510.432 145.559 510.528C144.663 510.624 143.767 510.672 142.871 510.672C140.599 510.672 138.615 510.336 136.919 509.664C135.255 508.992 133.863 508.08 132.743 506.928C131.655 505.744 130.839 504.352 130.295 502.752C129.783 501.152 129.527 499.424 129.527 497.568ZM146.327 494.832C146.295 494.224 146.183 493.632 145.991 493.056C145.831 492.48 145.559 491.968 145.175 491.52C144.823 491.072 144.359 490.704 143.783 490.416C143.239 490.128 142.551 489.984 141.719 489.984C140.919 489.984 140.231 490.128 139.655 490.416C139.079 490.672 138.599 491.024 138.215 491.472C137.831 491.92 137.527 492.448 137.303 493.056C137.111 493.632 136.967 494.224 136.871 494.832H146.327ZM168.406 505.008C169.11 505.008 169.782 504.992 170.422 504.96C171.062 504.928 171.574 504.88 171.958 504.816V499.392C171.67 499.328 171.238 499.264 170.662 499.2C170.086 499.136 169.558 499.104 169.078 499.104C168.406 499.104 167.766 499.152 167.158 499.248C166.582 499.312 166.07 499.456 165.622 499.68C165.174 499.904 164.822 500.208 164.566 500.592C164.31 500.976 164.182 501.456 164.182 502.032C164.182 503.152 164.55 503.936 165.286 504.384C166.054 504.8 167.094 505.008 168.406 505.008ZM167.83 484.08C169.942 484.08 171.702 484.32 173.11 484.8C174.518 485.28 175.638 485.968 176.47 486.864C177.334 487.76 177.942 488.848 178.294 490.128C178.646 491.408 178.822 492.832 178.822 494.4V509.28C177.798 509.504 176.374 509.76 174.55 510.048C172.726 510.368 170.518 510.528 167.926 510.528C166.294 510.528 164.806 510.384 163.462 510.096C162.15 509.808 161.014 509.344 160.054 508.704C159.094 508.032 158.358 507.168 157.846 506.112C157.334 505.056 157.078 503.76 157.078 502.224C157.078 500.752 157.366 499.504 157.942 498.48C158.55 497.456 159.35 496.64 160.342 496.032C161.334 495.424 162.47 494.992 163.75 494.736C165.03 494.448 166.358 494.304 167.734 494.304C168.662 494.304 169.478 494.352 170.182 494.448C170.918 494.512 171.51 494.608 171.958 494.736V494.064C171.958 492.848 171.59 491.872 170.854 491.136C170.118 490.4 168.838 490.032 167.014 490.032C165.798 490.032 164.598 490.128 163.414 490.32C162.23 490.48 161.206 490.72 160.342 491.04L159.43 485.28C159.846 485.152 160.358 485.024 160.966 484.896C161.606 484.736 162.294 484.608 163.03 484.512C163.766 484.384 164.534 484.288 165.334 484.224C166.166 484.128 166.998 484.08 167.83 484.08ZM195.37 510.48C193.29 510.448 191.594 510.224 190.282 509.808C189.002 509.392 187.978 508.816 187.21 508.08C186.474 507.312 185.962 506.4 185.674 505.344C185.418 504.256 185.29 503.04 185.29 501.696V473.904L192.442 472.752V500.256C192.442 500.896 192.49 501.472 192.586 501.984C192.682 502.496 192.858 502.928 193.114 503.28C193.402 503.632 193.802 503.92 194.314 504.144C194.826 504.368 195.514 504.512 196.378 504.576L195.37 510.48ZM207.629 510H200.477V484.752H207.629V510ZM208.301 477.456C208.301 478.768 207.869 479.808 207.005 480.576C206.173 481.312 205.181 481.68 204.029 481.68C202.877 481.68 201.869 481.312 201.005 480.576C200.173 479.808 199.757 478.768 199.757 477.456C199.757 476.144 200.173 475.12 201.005 474.384C201.869 473.616 202.877 473.232 204.029 473.232C205.181 473.232 206.173 473.616 207.005 474.384C207.869 475.12 208.301 476.144 208.301 477.456ZM224.384 492.432L229.376 484.752H236.768L228.128 496.896C230.048 499.296 231.792 501.632 233.36 503.904C234.928 506.176 236.176 508.208 237.104 510H229.424C229.168 509.52 228.848 508.928 228.464 508.224C228.08 507.488 227.648 506.736 227.168 505.968C226.688 505.168 226.176 504.384 225.632 503.616C225.12 502.816 224.608 502.096 224.096 501.456C223.616 502.064 223.12 502.736 222.608 503.472C222.128 504.208 221.664 504.96 221.216 505.728C220.768 506.464 220.32 507.2 219.872 507.936C219.456 508.672 219.088 509.36 218.768 510H211.472C211.856 509.2 212.384 508.256 213.056 507.168C213.728 506.08 214.448 504.96 215.216 503.808C216.016 502.624 216.848 501.456 217.712 500.304C218.576 499.12 219.424 498.016 220.256 496.992C218.816 494.976 217.376 492.944 215.936 490.896C214.496 488.816 213.072 486.768 211.664 484.752H219.392L224.384 492.432ZM275.214 510C274.862 508.848 274.462 507.664 274.014 506.448C273.598 505.232 273.182 504.016 272.766 502.8H259.806C259.39 504.016 258.958 505.232 258.51 506.448C258.094 507.664 257.71 508.848 257.358 510H249.582C250.83 506.416 252.014 503.104 253.134 500.064C254.254 497.024 255.342 494.16 256.398 491.472C257.486 488.784 258.542 486.24 259.566 483.84C260.622 481.408 261.71 479.04 262.83 476.736H269.982C271.07 479.04 272.142 481.408 273.198 483.84C274.254 486.24 275.31 488.784 276.366 491.472C277.454 494.16 278.558 497.024 279.678 500.064C280.798 503.104 281.982 506.416 283.23 510H275.214ZM266.238 484.272C266.078 484.752 265.838 485.408 265.518 486.24C265.198 487.072 264.83 488.032 264.414 489.12C263.998 490.208 263.534 491.408 263.022 492.72C262.542 494.032 262.046 495.408 261.534 496.848H270.99C270.478 495.408 269.982 494.032 269.502 492.72C269.022 491.408 268.558 490.208 268.11 489.12C267.694 488.032 267.326 487.072 267.006 486.24C266.686 485.408 266.43 484.752 266.238 484.272ZM287.535 476.736H295.023V510H287.535V476.736Z" fill="url(#paint2_linear_103_487)"/>
</g>
<defs>
<linearGradient id="paint0_linear_103_487" x1="167.055" y1="334.527" x2="206.344" y2="422.478" gradientUnits="userSpaceOnUse">
<stop stop-color="#1CC574"/>
<stop offset="1" stop-color="#E1FF00"/>
</linearGradient>
<linearGradient id="paint1_linear_103_487" x1="172.636" y1="389.24" x2="196.168" y2="442.881" gradientUnits="userSpaceOnUse">
<stop stop-color="#1CC574"/>
<stop offset="1" stop-color="#E1FF00"/>
</linearGradient>
<linearGradient id="paint2_linear_103_487" x1="92" y1="492.5" x2="325.5" y2="492" gradientUnits="userSpaceOnUse">
<stop stop-color="#1CC574"/>
<stop offset="1" stop-color="#E1FF00"/>
</linearGradient>
<clipPath id="clip0_103_487">
<rect width="390" height="844" fill="white"/>
</clipPath>
</defs>
</svg>
